<svg width="31" height="25" viewBox="0 0 31 25" fill="none" xmlns="http://www.w3.org/2000/svg">
<path d="M9.96179 24.2633C21.1564 24.2633 27.282 15.2671 27.282 7.47882C27.282 7.22573 27.282 6.97264 27.2701 6.71955C28.4573 5.89125 29.4901 4.84438 30.3092 3.65945C29.217 4.13112 28.0418 4.44173 26.8072 4.59129C28.0655 3.86653 29.0271 2.70461 29.4901 1.32412C28.3148 2.00286 27.009 2.48603 25.62 2.75063C24.5041 1.60022 22.9252 0.886963 21.1802 0.886963C17.8206 0.886963 15.0902 3.53291 15.0902 6.78857C15.0902 7.24874 15.1495 7.6974 15.2445 8.13455C10.1873 7.89297 5.69999 5.53463 2.69656 1.96835C2.17422 2.84266 1.87744 3.85502 1.87744 4.93641C1.87744 6.98414 2.95773 8.79029 4.58409 9.84867C3.5869 9.81415 2.64907 9.54956 1.82995 9.1124C1.82995 9.13541 1.82995 9.15842 1.82995 9.19293C1.82995 12.046 3.93117 14.4388 6.70905 14.9795C6.19859 15.1176 5.66438 15.1866 5.10643 15.1866C4.71468 15.1866 4.3348 15.1521 3.96679 15.083C4.73842 17.4299 6.99397 19.1325 9.65314 19.1785C7.56379 20.7661 4.94023 21.7094 2.09112 21.7094C1.6044 21.7094 1.11767 21.6864 0.642822 21.6289C3.32574 23.2855 6.53099 24.2633 9.96179 24.2633Z" fill="#CCCCCC"/>
</svg>
