<svg width="37" height="26" viewBox="0 0 37 26" fill="none" xmlns="http://www.w3.org/2000/svg">
<mask id="mask0" mask-type="alpha" maskUnits="userSpaceOnUse" x="0" y="0" width="37" height="26">
<path fill-rule="evenodd" clip-rule="evenodd" d="M0.925049 0.886963H37V25.5177H0.925049V0.886963Z" fill="white"/>
</mask>
<g mask="url(#mask0)">
<path fill-rule="evenodd" clip-rule="evenodd" d="M15.2658 18.3981V7.9986L24.6976 13.1986L15.2658 18.3981ZM36.2459 4.72583C35.8309 3.21134 34.6081 2.01875 33.0555 1.614C30.2413 0.878418 18.9565 0.878418 18.9565 0.878418C18.9565 0.878418 7.67161 0.878418 4.85742 1.614C3.30485 2.01875 2.08199 3.21134 1.66698 4.72583C0.912842 7.47066 0.912842 13.1978 0.912842 13.1978C0.912842 13.1978 0.912842 18.9247 1.66698 21.6697C2.08199 23.1842 3.30485 24.3768 4.85742 24.7817C7.67161 25.5171 18.9565 25.5171 18.9565 25.5171C18.9565 25.5171 30.2413 25.5171 33.0555 24.7817C34.6081 24.3768 35.8309 23.1842 36.2459 21.6697C37.0001 18.9247 37.0001 13.1978 37.0001 13.1978C37.0001 13.1978 37.0001 7.47066 36.2459 4.72583Z" fill="#CCCCCC"/>
</g>
</svg>
